<svg width="16" height="16" viewBox="0 0 16 16" fill="none" xmlns="http://www.w3.org/2000/svg">
<g clip-path="url(#clip0_8574_7770)">
<path d="M13.5998 14.8299H5.9498C5.1798 14.8299 4.5498 14.1999 4.5498 13.4299V5.77988C4.5498 5.00988 5.1798 4.37988 5.9498 4.37988H13.5998C14.3698 4.37988 14.9998 5.00988 14.9998 5.77988V13.4299C14.9998 14.1999 14.3698 14.8299 13.5998 14.8299Z" fill="#1078CA"/>
<path d="M10.05 1H2.4C1.63 1 1 1.63 1 2.4V10.04C1 10.81 1.63 11.44 2.4 11.44H3.62V5.78C3.62 4.49 4.67 3.45 5.95 3.45H11.45V2.4C11.45 1.63 10.82 1 10.05 1Z" fill="#1078CA"/>
</g>
<defs>
<clipPath id="clip0_8574_7770">
<rect width="14" height="13.83" fill="white" transform="translate(1 1)"/>
</clipPath>
</defs>
</svg>
